<svg viewBox="0 0 49.993 50" xmlns="http://www.w3.org/2000/svg" xmlns:xlink="http://www.w3.org/1999/xlink" width="49.993042" height="50.000015" fill="none" customFrame="#000000">
	<g id="Icon">
		<path id="Vector" d="M28.9275 34.4167L21.1219 34.4167L21.1219 50L28.9275 50L28.9275 34.4167Z" fill="rgb(255,208.89,25.5)" fill-rule="evenodd" />
		<path id="Vector" d="M28.9275 0L21.1219 0L21.1219 15.5833L28.9275 15.5833L28.9275 0Z" fill="rgb(255,208.89,25.5)" fill-rule="evenodd" />
		<path id="Vector" d="M7.80555 0L0 0L0 15.5833L7.80555 15.5833L7.80555 0Z" fill="rgb(255,208.89,25.5)" fill-rule="evenodd" transform="matrix(6.12323e-17,-1,1,6.12323e-17,34.4097,28.9001)" />
		<path id="Vector" d="M7.80555 0L0 0L0 15.5833L7.80555 15.5833L7.80555 0Z" fill="rgb(255,208.89,25.5)" fill-rule="evenodd" transform="matrix(6.12323e-17,-1,1,6.12323e-17,0,28.9072)" />
		<path id="Vector" d="M7.80557 0L0 0L0 15.5833L7.80557 15.5833L7.80557 0Z" fill="rgb(63.75,63.75,63.75)" fill-rule="evenodd" transform="matrix(0.7071,-0.7071,0.7071,0.7071,28.9052,34.3962)" />
		<path id="Vector" d="M7.80555 0L0 0L0 15.5833L7.80555 15.5833L7.80555 0Z" fill="rgb(63.75,63.75,63.75)" fill-rule="evenodd" transform="matrix(0.7071,-0.7071,0.7071,0.7071,4.57129,10.0649)" />
		<path id="Vector" d="M7.80557 0L0 0L0 15.5833L7.80557 15.5833L7.80557 0Z" fill="rgb(63.75,63.75,63.75)" fill-rule="evenodd" transform="matrix(-0.7071,-0.7071,0.7071,-0.7071,34.4053,21.1078)" />
		<path id="Vector" d="M7.80555 0L0 0L0 15.5833L7.80555 15.5833L7.80555 0Z" fill="rgb(63.75,63.75,63.75)" fill-rule="evenodd" transform="matrix(-0.7071,-0.7071,0.7071,-0.7071,10.0765,45.439)" />
	</g>
</svg>
